<?xml version="1.0" standalone="no"?>
<!DOCTYPE svg PUBLIC "-//W3C//DTD SVG 20010904//EN"
 "http://www.w3.org/TR/2001/REC-SVG-20010904/DTD/svg10.dtd">
<svg version="1.0" xmlns="http://www.w3.org/2000/svg"
 width="431.000000pt" height="431.000000pt" viewBox="0 0 431.000000 431.000000"
 preserveAspectRatio="xMidYMid meet">
<metadata>
Created by potrace 1.11, written by Peter Selinger 2001-2013
</metadata>
<g transform="translate(0.000000,431.000000) scale(0.100000,-0.100000)"
fill="#000000" stroke="none">
<path d="M410 3719 c-118 -9 -207 -46 -258 -109 -32 -39 -65 -130 -82 -230
-30 -168 -35 -341 -35 -1200 0 -808 6 -1076 31 -1274 13 -108 94 -226 193
-279 96 -53 142 -56 796 -56 667 1 710 3 807 54 66 35 103 72 127 128 18 42
20 73 23 304 3 220 5 258 18 261 22 4 54 -28 190 -193 69 -82 127 -152 130
-155 3 -3 62 -72 130 -155 68 -82 132 -157 141 -165 44 -38 57 -47 97 -63 38
-15 106 -17 716 -17 673 0 714 2 754 34 48 39 76 72 97 115 22 43 25 62 25
158 0 102 -2 114 -30 169 -16 33 -37 68 -47 79 -10 11 -45 51 -78 90 -78 90
-65 76 -180 201 -55 60 -310 320 -567 579 l-468 470 33 30 c18 17 59 53 91 80
32 28 68 59 80 70 33 30 176 158 197 176 191 166 615 586 635 627 54 111 -20
252 -142 270 -53 8 -706 7 -739 -1 -122 -30 -167 -58 -311 -192 -59 -55 -121
-113 -138 -129 -17 -15 -65 -60 -107 -100 -41 -39 -107 -100 -145 -136 -151
-139 -308 -286 -335 -312 -15 -16 -32 -28 -37 -28 -5 0 -9 57 -9 128 -2 396
-7 442 -59 545 -31 60 -126 158 -179 185 -84 42 -106 43 -704 45 -317 1 -614
-1 -661 -4z"/>
</g>
</svg>
